<svg width="36" height="36" viewBox="0 0 36 36" fill="none" xmlns="http://www.w3.org/2000/svg">
<g clip-path="url(#clip0_47_147)">
<path d="M18 31.5C25.4558 31.5 31.5 25.4558 31.5 18C31.5 10.5442 25.4558 4.5 18 4.5C10.5442 4.5 4.5 10.5442 4.5 18C4.5 25.4558 10.5442 31.5 18 31.5Z" stroke="black" stroke-width="2" stroke-linecap="round" stroke-linejoin="round"/>
<path d="M18 25.5V25.515" stroke="black" stroke-width="2" stroke-linecap="round" stroke-linejoin="round"/>
<path d="M18 20.25C17.9724 19.7631 18.1037 19.2803 18.3743 18.8745C18.6448 18.4687 19.0399 18.1618 19.5 18C20.0638 17.7844 20.5699 17.4409 20.9784 16.9964C21.3868 16.552 21.6866 16.0188 21.854 15.4389C22.0214 14.8589 22.0519 14.248 21.9431 13.6543C21.8343 13.0606 21.5891 12.5002 21.227 12.0173C20.8648 11.5344 20.3955 11.1421 19.8559 10.8714C19.3164 10.6007 18.7214 10.459 18.1178 10.4573C17.5142 10.4556 16.9184 10.5941 16.3774 10.8618C15.8363 11.1295 15.3649 11.5191 15 12" stroke="black" stroke-width="2" stroke-linecap="round" stroke-linejoin="round"/>
</g>
<defs>
<clipPath id="clip0_47_147">
<rect width="36" height="36" fill="white"/>
</clipPath>
</defs>
</svg>
